<?xml version="1.0" encoding="utf-8"?>
<!-- Generator: Adobe Illustrator 27.3.1, SVG Export Plug-In . SVG Version: 6.00 Build 0)  -->
<svg version="1.1" id="Calque_1" xmlns="http://www.w3.org/2000/svg" xmlns:xlink="http://www.w3.org/1999/xlink" x="0px" y="0px"
	 viewBox="0 0 191.29 366.27" style="enable-background:new 0 0 191.29 366.27;" xml:space="preserve">
<style type="text/css">
	.st0{fill:#010101;}
	.st1{fill:#FFD06A;}
</style>
<path class="st0" d="M0,139.57c2.11-3.26,2.79-7.55,6.79-9.46c3.54-1.69,7.05-2.95,11.1-3.61c5.13-0.83,10.33-1.06,15.44-2
	c6.09-1.12,12.27-1.73,18.33-2.98c6.41-1.32,12.94-1.76,19.4-2.69c6.26-0.89,12.56-1.65,18.84-2.51c5.05-0.69,10.09-1.5,15.14-2.24
	c6.59-0.97,13.23-1.57,19.78-2.9c1.55-0.32,2.07-1.06,2.54-2.05c11.38-24,23.51-47.62,35.22-71.46c5.15-10.5,9.94-21.18,15.81-31.32
	c2.41-4.15,6.59-5.01,10.6-6.21c1.32-0.4,2.35-0.03,2.23,1.85c-0.19,2.86-0.11,5.73-0.15,8.6c-2.98,1.18-4.8,3.25-6.03,6.3
	c-1.85,4.6-4.23,9-6.43,13.46c-14.64,29.62-29.3,59.24-43.98,88.84c-0.46,0.93-0.72,2.16-2.11,2.35c-3.5,0.49-6.98,1.06-10.48,1.52
	c-8.01,1.05-16.04,1.94-24.03,3.11c-9.28,1.35-18.48,3.27-27.79,4.3c-9.24,1.02-18.35,2.85-27.56,4.04
	c-8.32,1.07-16.66,2.29-24.98,3.46c-2.69,0.38-5.53,1.14-5.96,3.41c-0.38,2.01-0.75,4.75,1.68,6.96c9.4,8.55,18.13,17.82,27.33,26.6
	c18.49,17.66,36.52,35.8,54.78,53.69c1.45,1.42,2.21,2.86,1.98,4.88c-1.14,9.8-3.16,19.45-5.03,29.11c-0.85,4.37-3.05,9.12-2.68,13
	c0.57,6.06-2.51,7.61-6.5,9.5c-3.55-2.15-4.73-5.32-3.83-9.67c1.27-6.16,1.59-12.45,2.85-18.63c1.39-6.77,2.03-13.69,3.32-20.48
	c0.27-1.42-0.13-1.98-0.91-2.7c-11.92-10.95-22.97-22.8-34.77-33.86c-7.81-7.32-15.23-15.01-22.96-22.4
	c-5.57-5.32-11.08-10.69-16.7-15.95c-4.23-3.95-8.1-8.13-10.25-13.63C0,145.06,0,142.32,0,139.57z"/>
<path class="st1" d="M83.26,285.13c3.99-1.89,7.07-3.45,6.5-9.5c-0.36-3.87,1.84-8.63,2.68-13c1.87-9.66,3.89-19.31,5.03-29.11
	c0.24-2.03-0.52-3.46-1.98-4.88c-18.27-17.89-36.29-36.03-54.78-53.69c-9.2-8.78-17.92-18.05-27.33-26.6
	c-2.43-2.21-2.07-4.95-1.68-6.96c0.43-2.27,3.28-3.04,5.96-3.41c8.32-1.17,16.66-2.38,24.98-3.46c9.21-1.19,18.32-3.02,27.56-4.04
	c9.31-1.03,18.51-2.95,27.79-4.3c7.99-1.16,16.02-2.06,24.03-3.11c3.5-0.46,6.99-1.03,10.48-1.52c1.39-0.19,1.65-1.42,2.11-2.35
	c14.68-29.6,29.33-59.22,43.98-88.84c2.2-4.46,4.58-8.85,6.43-13.46c1.23-3.05,3.05-5.13,6.03-6.3c0.04,1.12,0.1,2.25,0.1,3.37
	c0,94.33,0,188.67,0,283c0,1-0.06,2-0.09,2.99c-3.58,0.53-6.35,2.79-9.43,4.41c-31.81,16.7-63.65,33.35-95.49,49.99
	c-4.19,2.19-7.94-0.31-8.25-5.12c-0.14-2.06,0.61-3.87,0.93-5.77c2.07-12.23,4.25-24.44,6.56-36.63c1.28-6.76,0.78-8.6-3.71-10.7
	C81.61,292.38,82.7,288.8,83.26,285.13z"/>
<path class="st0" d="M81.69,296.13c4.49,2.09,4.99,3.94,3.71,10.7c-2.31,12.19-4.49,24.4-6.56,36.63c-0.32,1.9-1.06,3.71-0.93,5.77
	c0.32,4.81,4.07,7.31,8.25,5.12c31.84-16.63,63.68-33.28,95.49-49.99c3.08-1.62,5.85-3.87,9.43-4.41c0.03,2.74-0.15,5.51,0.15,8.23
	c0.36,3.26-1.14,4.73-3.91,6.12c-13.81,6.98-27.51,14.19-41.23,21.35c-14.57,7.6-29.13,15.22-43.68,22.87
	c-3.52,1.85-6.87,4.08-10.48,5.72c-10.32,4.66-21.05,1.3-24.72-10.2c-1.44-4.52-0.12-8.99,0.59-13.42
	c1.27-7.88,2.83-15.72,4.15-23.6c0.87-5.16,1.4-10.37,2.33-15.52C74.98,297.61,76.91,296.36,81.69,296.13z"/>
</svg>
